:FULLY-SPECIFIED
:DEGREES
1340
root 3.10507 16.5796 -2.89724 99.2999 -93.2574 -92.9871
lowerback 0.979969 1.05935 -1.8355
upperback 0.891463 1.39585 -0.0972947
thorax 0.322045 0.687006 0.9186
lowerneck -18.7645 1.28456 0.812289
upperneck 19.9705 1.37401 0.300042
head 9.40373 0.698936 0.147896
rclavicle 1.27222e-014 -3.57812e-015
rhumerus -29.5705 -1.93958 -83.3103
rradius 21.4651
rwrist 30.592
rhand -24.5176 1.71708
rfingers 7.12502
rthumb 1.97749 -28.2535
lclavicle 1.27222e-014 -3.57812e-015
lhumerus -29.231 4.75707 89.0393
lradius 17.8523
lwrist -18.5939
lhand -23.33 1.90283
lfingers 7.12502
lthumb 3.12444 31.8597
rfemur -8.47861 -4.73995 19.6374
rtibia 51.9596
rfoot 0.0319101 1.36241
rtoes -18.5637
lfemur -19.1074 -9.48814 -28.1254
ltibia 20.2397
lfoot -6.19019 1.86348
ltoes -0.402749
1341
root 3.10849 16.5857 -2.88571 99.5968 -93.5722 -93.4652
lowerback 1.19172 0.970713 -2.10426
upperback 0.960981 1.27011 -0.19977
thorax 0.274937 0.622386 0.962055
lowerneck -18.7147 1.31202 0.814425
upperneck 19.8645 1.40337 0.342957
head 9.35741 0.718283 0.165594
rclavicle 7.95139e-016 5.96354e-015
rhumerus -29.6499 -2.21136 -83.1824
rradius 21.5959
rwrist 30.689
rhand -24.8122 1.75902
rfingers 7.12502
rthumb 1.69291 -28.214
lclavicle 7.95139e-016 5.96354e-015
lhumerus -28.9625 4.12419 89.1949
lradius 17.9551
lwrist -18.0742
lhand -23.4306 1.8889
lfingers 7.12502
lthumb 3.02725 31.8472
rfemur -9.9613 -5.29345 18.9964
rtibia 54.6716
rfoot 0.253479 0.655027
rtoes -18.6033
lfemur -18.0819 -9.43839 -28.6314
ltibia 19.4902
lfoot -6.21741 1.78536
ltoes -0.276834
1342
root 3.11502 16.5881 -2.87542 100.172 -93.7878 -94.2795
lowerback 1.49744 0.868639 -2.29565
upperback 1.02654 1.1232 -0.251365
thorax 0.173036 0.547992 1.01361
lowerneck -18.6391 1.34484 0.802176
upperneck 19.7631 1.45031 0.360175
head 9.30811 0.741584 0.178887
rclavicle 1.15295e-014 5.1684e-015
rhumerus -29.7518 -2.19891 -83.176
rradius 21.8451
rwrist 30.0017
rhand -25.0155 1.86056
rfingers 7.12502
rthumb 1.4966 -28.1139
lclavicle 1.15295e-014 5.1684e-015
lhumerus -28.698 4.0398 89.1524
lradius 17.9402
lwrist -18.3277
lhand -23.5503 1.82565
lfingers 7.12502
lthumb 2.91171 31.7855
rfemur -11.288 -5.84855 18.5055
rtibia 57.1551
rfoot -0.163787 -0.17694
rtoes -19.1306
lfemur -17.1189 -9.43701 -29.013
ltibia 18.914
lfoot -6.33548 1.74562
ltoes -0.336338
1343
root 3.12317 16.5908 -2.86422 101.764 -93.9249 -96.1797
lowerback 1.84043 0.762304 -2.36705
upperback 1.143 0.970308 -0.273355
thorax 0.104772 0.470165 1.02945
lowerneck -18.5965 1.36103 0.774533
upperneck 19.6423 1.4833 0.360297
head 9.25813 0.755639 0.18711
rclavicle -1.90833e-014 -1.19271e-015
rhumerus -29.8398 -2.30829 -83.0684
rradius 22.1239
rwrist 29.9845
rhand -25.2992 1.7512
rfingers 7.12502
rthumb 1.22263 -28.225
lclavicle -1.90833e-014 -1.19271e-015
lhumerus -28.3387 3.77882 89.2036
lradius 17.958
lwrist -18.136
lhand -23.6312 1.91155
lfingers 7.12502
lthumb 2.83355 31.8725
rfemur -12.5003 -6.43673 18.1398
rtibia 59.3697
rfoot -0.727708 -1.47612
rtoes -18.993
lfemur -16.1728 -9.51624 -29.3142
ltibia 18.5688
lfoot -6.57507 1.74369
ltoes -0.604378
1344
root 3.13238 16.5915 -2.85504 102.997 -93.9571 -97.6421
lowerback 2.07231 0.669292 -2.37664
upperback 1.24334 0.839405 -0.252418
thorax 0.0819383 0.403357 1.05658
lowerneck -18.6071 1.38152 0.766709
upperneck 19.6192 1.52031 0.334852
head 9.2522 0.769591 0.18455
rclavicle 7.95139e-016 5.96354e-015
rhumerus -29.9007 -2.13736 -83.0979
rradius 22.3209
rwrist 29.0572
rhand -25.7499 1.92526
rfingers 7.12502
rthumb 0.787304 -28.053
lclavicle 7.95139e-016 5.96354e-015
lhumerus -27.9359 3.81118 89.1595
lradius 17.8865
lwrist -18.389
lhand -23.9731 1.89904
lfingers 7.12502
lthumb 2.50337 31.8641
rfemur -13.7825 -6.88364 17.9765
rtibia 61.3404
rfoot -1.43245 -3.02717
rtoes -18.3959
lfemur -15.398 -9.68253 -29.4682
ltibia 18.3309
lfoot -6.79971 1.89333
ltoes -0.605529
1345
root 3.14264 16.5863 -2.84576 104.862 -94.009 -99.7563
lowerback 2.35663 0.582967 -2.36446
upperback 1.30811 0.715833 -0.244507
thorax -0.00637519 0.341416 1.0579
lowerneck -18.541 1.37953 0.732979
upperneck 19.6151 1.52363 0.349416
head 9.23835 0.769897 0.194999
rclavicle 3.18055e-015 -1.15295e-014
rhumerus -30.0528 -2.32439 -82.9622
rradius 22.5706
rwrist 29.0081
rhand -25.9052 1.84589
rfingers 7.12502
rthumb 0.637298 -28.1329
lclavicle 3.18055e-015 -1.15295e-014
lhumerus -27.568 3.93703 89.0789
lradius 17.8022
lwrist -18.6241
lhand -24.1997 1.90643
lfingers 7.12502
lthumb 2.28445 31.8739
rfemur -15.0307 -7.409 17.8115
rtibia 63.0091
rfoot -1.93205 -4.4728
rtoes -17.3864
lfemur -14.5817 -9.79308 -29.6549
ltibia 18.0825
lfoot -7.0584 2.00031
ltoes -0.890259
1346
root 3.15295 16.5861 -2.83801 106.296 -94.018 -101.404
lowerback 2.57352 0.526492 -2.34567
upperback 1.3771 0.634439 -0.223993
thorax -0.0541655 0.300119 1.06875
lowerneck -18.4801 1.37035 0.705596
upperneck 19.617 1.50904 0.389268
head 9.22735 0.765181 0.210791
rclavicle -1.39149e-014 -9.54166e-015
rhumerus -30.1609 -2.44473 -82.8817
rradius 22.7852
rwrist 28.2098
rhand -26.1144 1.93687
rfingers 7.12502
rthumb 0.435234 -28.0424
lclavicle -1.39149e-014 -9.54166e-015
lhumerus -27.1599 4.09049 88.9948
lradius 17.7135
lwrist -19.0294
lhand -24.5513 1.9303
lfingers 7.12502
lthumb 1.94492 31.9012
rfemur -16.2618 -7.69867 17.7728
rtibia 64.383
rfoot -2.52768 -5.97181
rtoes -16.5037
lfemur -13.8454 -10.0292 -29.7638
ltibia 17.891
lfoot -7.37853 2.25686
ltoes -0.998232
1347
root 3.16129 16.5994 -2.83138 107.973 -94.0001 -103.239
lowerback 2.70617 0.474946 -2.3207
upperback 1.43963 0.562602 -0.182141
thorax -0.0619088 0.263337 1.09878
lowerneck -18.4414 1.35225 0.724961
upperneck 19.6573 1.48911 0.338185
head 9.23491 0.75095 0.18721
rclavicle -5.1684e-015 1.98785e-015
rhumerus -30.2334 -2.56059 -82.7754
rradius 22.951
rwrist 27.7608
rhand -26.2469 1.84652
rfingers 7.12502
rthumb 0.307247 -28.133
lclavicle -5.1684e-015 1.98785e-015
lhumerus -26.7245 4.18015 88.9718
lradius 17.6551
lwrist -19.0988
lhand -24.8302 1.98879
lfingers 7.12502
lthumb 1.67554 31.962
rfemur -17.4651 -7.90249 17.8076
rtibia 65.4102
rfoot -3.16119 -7.2796
rtoes -15.4531
lfemur -13.1824 -10.1063 -29.8315
ltibia 17.751
lfoot -7.69766 2.28614
ltoes -1.03403
1348
root 3.17184 16.5979 -2.82594 109.658 -94.0104 -105.011
lowerback 2.74917 0.426146 -2.32909
upperback 1.47645 0.496339 -0.146908
thorax -0.0461922 0.22937 1.14127
lowerneck -18.3995 1.32929 0.721369
upperneck 19.7525 1.45751 0.330564
head 9.26039 0.733946 0.180982
rclavicle 7.95139e-015 2.78299e-015
rhumerus -30.3602 -2.86959 -82.5646
rradius 23.1351
rwrist 27.7136
rhand -26.3065 2.0289
rfingers 7.12502
rthumb 0.249764 -27.9507
lclavicle 7.95139e-015 2.78299e-015
lhumerus -26.3011 4.46009 88.8893
lradius 17.5699
lwrist -19.3679
lhand -25.1689 1.85306
lfingers 7.12502
lthumb 1.3484 31.8285
rfemur -18.7 -7.94611 17.8691
rtibia 66.2094
rfoot -4.02529 -8.60486
rtoes -14.507
lfemur -12.5866 -10.194 -29.9182
ltibia 17.5611
lfoot -8.02615 2.32432
ltoes -1.39372
1349
root 3.18228 16.5995 -2.82262 111.313 -93.9718 -106.709
lowerback 2.76861 0.408208 -2.29819
upperback 1.48913 0.472888 -0.109232
thorax -0.0432858 0.21753 1.16314
lowerneck -18.3533 1.28174 0.674264
upperneck 19.8278 1.3829 0.415957
head 9.27703 0.7043 0.208171
rclavicle 2.38542e-015 9.54166e-015
rhumerus -30.4251 -3.03788 -82.4535
rradius 23.1523
rwrist 27.3249
rhand -26.4077 2.02262
rfingers 7.12502
rthumb 0.151938 -27.9571
lclavicle 2.38542e-015 9.54166e-015
lhumerus -25.9045 4.73031 88.7934
lradius 17.5444
lwrist -19.8153
lhand -25.3919 1.81566
lfingers 7.12502
lthumb 1.13307 31.7924
rfemur -19.9155 -7.90754 18.0171
rtibia 66.7421
rfoot -5.14202 -9.73751
rtoes -14.1054
lfemur -12.07 -10.2819 -29.9189
ltibia 17.4332
lfoot -8.34662 2.36092
ltoes -1.25185
